<svg width="60" height="61" fill="none" xmlns="http://www.w3.org/2000/svg"><path opacity=".5" d="M0 44.727L27.4 61V37.153L0 20.777v23.95zM51.3 12.69v2.559c0 1.842-3.5 3.378-7.7 3.378-4.3 0-7.7-1.536-7.7-3.378v-4.196c.3 1.74 3.6 3.172 7.7 3.172 4.3 0 7.7-1.535 7.7-3.377 0-1.842-3.5-3.378-7.7-3.378h-1l-5-2.968v3.173c0 1.842-3.5 3.378-7.7 3.378-2.7 0-5-.614-6.4-1.536-.2-.204-.4-.409-.7-.614-.4-.409-.6-.818-.6-1.228v-3.07L17.4 7.47h-1.1c-4.3 0-7.7 1.536-7.7 3.378s3.5 3.377 7.7 3.377c4.1 0 7.4-1.432 7.7-3.172v4.196c0 1.842-3.5 3.378-7.7 3.378-4.3 0-7.7-1.536-7.7-3.378v-2.456l-6 3.582 27.5 16.376 27.4-16.274-6.2-3.787zM37.7 23.13c0 1.842-3.5 3.377-7.7 3.377-4.3 0-7.7-1.535-7.7-3.377v-4.196c.3 1.74 3.6 3.172 7.7 3.172s7.4-1.433 7.7-3.172v4.196zm-5.1 14.226V61L60 44.727V21.084L32.6 37.357zM29.9 6.755c4.3 0 7.7-1.535 7.7-3.377C37.6 1.535 34.1 0 29.9 0c-4.3 0-7.7 1.535-7.7 3.378 0 1.842 3.4 3.377 7.7 3.377z" fill="#149080"/></svg>