<svg xmlns="http://www.w3.org/2000/svg" width="1150" height="34" fill="none"><path fill="#fff" d="M1168.8 0c-15.6 0-15.6 14-31.2 14-15.5 0-15.6-14-31.2-14-15.5 0-15.6 14-31.2 14S1059.6 0 1044 0c-15.6 0-15.6 14-31.2 14S997.1 0 981.5 0 966 14 950.3 14c-15.5 0-16-14-31.5-14-15.6 0-15.6 14-31.2 14-15.5 0-15.8-14-31.3-14-15.6 0-15.6 14-31.2 14S809.5 0 793.8 0c-15.6 0-15.6 14-31.2 14S747 0 731.4 0C716 0 715.7 14 700 14S684.3 0 668.8 0c-15.6 0-15.6 14-31.2 14S622 0 606.3 0c-15.6 0-15.6 14-31.2 14S559.5 0 544 0s-15.6 14-31.2 14-15.6-14-31.2-14-15.6 14-31.3 14C434.6 14 434.6 0 419 0c-15.6 0-15.6 14-31.3 14C372 14 372 0 356.3 0c-15.6 0-15.6 14-31.3 14-15.7 0-15.7-14-31.3-14C278 0 278 14 262.4 14 246.7 14 246.7 0 231 0c-15.7 0-15.7 14-31.2 14-15.7 0-15.7-14-31.3-14-15.7 0-15.7 14-31.3 14-15.7 0-15.7-14-31.3-14-15.7 0-15.7 14-31.3 14C59 14 59 0 43.4 0 28.2 0 28.2 14 12.5 14S-3.2 0-18.7 0-34.3 14-50 14v20h1250V14c-15.7 0-15.7-14-31.2-14z"/></svg>